<mxfile host="Electron" agent="Mozilla/5.0 (X11; Linux x86_64) AppleWebKit/537.36 (KHTML, like Gecko) draw.io/26.0.4 Chrome/132.0.6834.196 Electron/34.2.0 Safari/537.36" version="26.0.4">
  <diagram name="Page-1" id="d1vmS12eFwTsx5719tzP">
    <mxGraphModel dx="1302" dy="705" grid="1" gridSize="10" guides="1" tooltips="1" connect="1" arrows="1" fold="1" page="1" pageScale="1" pageWidth="850" pageHeight="1100" math="0" shadow="0">
      <root>
        <mxCell id="0" />
        <mxCell id="1" parent="0" />
        <mxCell id="FCR_vsDSYUezRLuw7aKM-11" style="edgeStyle=orthogonalEdgeStyle;rounded=0;orthogonalLoop=1;jettySize=auto;html=1;exitX=0;exitY=0;exitDx=0;exitDy=0;" edge="1" parent="1" source="FCR_vsDSYUezRLuw7aKM-3" target="FCR_vsDSYUezRLuw7aKM-4">
          <mxGeometry relative="1" as="geometry" />
        </mxCell>
        <mxCell id="FCR_vsDSYUezRLuw7aKM-20" value="a" style="edgeLabel;html=1;align=center;verticalAlign=middle;resizable=0;points=[];" vertex="1" connectable="0" parent="FCR_vsDSYUezRLuw7aKM-11">
          <mxGeometry x="-0.3186" y="4" relative="1" as="geometry">
            <mxPoint as="offset" />
          </mxGeometry>
        </mxCell>
        <mxCell id="FCR_vsDSYUezRLuw7aKM-30" style="edgeStyle=orthogonalEdgeStyle;rounded=0;orthogonalLoop=1;jettySize=auto;html=1;exitX=1;exitY=0.5;exitDx=0;exitDy=0;entryX=0;entryY=1;entryDx=0;entryDy=0;" edge="1" parent="1" source="FCR_vsDSYUezRLuw7aKM-3" target="FCR_vsDSYUezRLuw7aKM-6">
          <mxGeometry relative="1" as="geometry" />
        </mxCell>
        <mxCell id="FCR_vsDSYUezRLuw7aKM-34" value="d" style="edgeLabel;html=1;align=center;verticalAlign=middle;resizable=0;points=[];" vertex="1" connectable="0" parent="FCR_vsDSYUezRLuw7aKM-30">
          <mxGeometry x="0.3638" y="-1" relative="1" as="geometry">
            <mxPoint as="offset" />
          </mxGeometry>
        </mxCell>
        <mxCell id="FCR_vsDSYUezRLuw7aKM-3" value="" style="ellipse;whiteSpace=wrap;html=1;aspect=fixed;" vertex="1" parent="1">
          <mxGeometry x="500" y="630" width="80" height="80" as="geometry" />
        </mxCell>
        <mxCell id="FCR_vsDSYUezRLuw7aKM-4" value="" style="ellipse;shape=doubleEllipse;whiteSpace=wrap;html=1;aspect=fixed;" vertex="1" parent="1">
          <mxGeometry x="320" y="750" width="80" height="80" as="geometry" />
        </mxCell>
        <mxCell id="FCR_vsDSYUezRLuw7aKM-28" style="edgeStyle=orthogonalEdgeStyle;rounded=0;orthogonalLoop=1;jettySize=auto;html=1;exitX=0;exitY=0;exitDx=0;exitDy=0;entryX=1;entryY=0.5;entryDx=0;entryDy=0;" edge="1" parent="1" source="FCR_vsDSYUezRLuw7aKM-6" target="FCR_vsDSYUezRLuw7aKM-27">
          <mxGeometry relative="1" as="geometry" />
        </mxCell>
        <mxCell id="FCR_vsDSYUezRLuw7aKM-32" value="c" style="edgeLabel;html=1;align=center;verticalAlign=middle;resizable=0;points=[];" vertex="1" connectable="0" parent="FCR_vsDSYUezRLuw7aKM-28">
          <mxGeometry x="-0.0282" y="2" relative="1" as="geometry">
            <mxPoint as="offset" />
          </mxGeometry>
        </mxCell>
        <mxCell id="FCR_vsDSYUezRLuw7aKM-31" style="edgeStyle=orthogonalEdgeStyle;rounded=0;orthogonalLoop=1;jettySize=auto;html=1;exitX=0.5;exitY=0;exitDx=0;exitDy=0;" edge="1" parent="1" source="FCR_vsDSYUezRLuw7aKM-6">
          <mxGeometry relative="1" as="geometry">
            <mxPoint x="710" y="490" as="targetPoint" />
          </mxGeometry>
        </mxCell>
        <mxCell id="FCR_vsDSYUezRLuw7aKM-6" value="" style="ellipse;whiteSpace=wrap;html=1;aspect=fixed;" vertex="1" parent="1">
          <mxGeometry x="660" y="600" width="80" height="80" as="geometry" />
        </mxCell>
        <mxCell id="FCR_vsDSYUezRLuw7aKM-35" style="edgeStyle=orthogonalEdgeStyle;rounded=0;orthogonalLoop=1;jettySize=auto;html=1;exitX=0.5;exitY=1;exitDx=0;exitDy=0;entryX=0.5;entryY=0;entryDx=0;entryDy=0;" edge="1" parent="1" source="FCR_vsDSYUezRLuw7aKM-27" target="FCR_vsDSYUezRLuw7aKM-3">
          <mxGeometry relative="1" as="geometry" />
        </mxCell>
        <mxCell id="FCR_vsDSYUezRLuw7aKM-36" value="a&lt;div&gt;b&lt;/div&gt;" style="edgeLabel;html=1;align=center;verticalAlign=middle;resizable=0;points=[];" vertex="1" connectable="0" parent="FCR_vsDSYUezRLuw7aKM-35">
          <mxGeometry x="-0.1833" y="1" relative="1" as="geometry">
            <mxPoint as="offset" />
          </mxGeometry>
        </mxCell>
        <mxCell id="FCR_vsDSYUezRLuw7aKM-27" value="" style="ellipse;whiteSpace=wrap;html=1;aspect=fixed;" vertex="1" parent="1">
          <mxGeometry x="500" y="430" width="80" height="80" as="geometry" />
        </mxCell>
      </root>
    </mxGraphModel>
  </diagram>
</mxfile>
